<svg xmlns="http://www.w3.org/2000/svg" xmlns:xlink="http://www.w3.org/1999/xlink" width="500" zoomAndPan="magnify" viewBox="0 0 375 374.999991" height="500" preserveAspectRatio="xMidYMid meet" version="1.0"><defs><clipPath id="4f77aa994e"><path d="M 98 57.191406 L 356.824219 57.191406 L 356.824219 317.441406 L 98 317.441406 Z M 98 57.191406 " clip-rule="nonzero"/></clipPath><clipPath id="a8fd5ead79"><path d="M 17.808594 97.980469 L 148.308594 97.980469 L 148.308594 228.480469 L 17.808594 228.480469 Z M 17.808594 97.980469 " clip-rule="nonzero"/></clipPath></defs><g clip-path="url(#4f77aa994e)"><path fill="#ffffff" d="M 155.976562 128.589844 C 155.976562 127.421875 156.007812 126.257812 156.066406 125.09375 C 156.125 123.929688 156.210938 122.765625 156.324219 121.605469 C 156.441406 120.445312 156.585938 119.289062 156.757812 118.132812 C 156.929688 116.980469 157.128906 115.832031 157.355469 114.6875 C 157.585938 113.546875 157.84375 112.40625 158.125 111.277344 C 158.410156 110.144531 158.722656 109.023438 159.0625 107.90625 C 159.398438 106.789062 159.765625 105.683594 160.160156 104.585938 C 160.554688 103.488281 160.972656 102.402344 161.421875 101.324219 C 161.867188 100.246094 162.339844 99.179688 162.839844 98.128906 C 163.339844 97.074219 163.863281 96.03125 164.414062 95.003906 C 164.960938 93.976562 165.539062 92.960938 166.136719 91.960938 C 166.738281 90.960938 167.359375 89.976562 168.007812 89.007812 C 168.65625 88.039062 169.328125 87.085938 170.023438 86.148438 C 170.71875 85.210938 171.4375 84.292969 172.175781 83.390625 C 172.914062 82.488281 173.675781 81.605469 174.460938 80.742188 C 175.242188 79.878906 176.046875 79.035156 176.871094 78.210938 C 177.695312 77.382812 178.539062 76.582031 179.40625 75.796875 C 180.269531 75.015625 181.152344 74.253906 182.050781 73.511719 C 182.953125 72.773438 183.871094 72.054688 184.808594 71.359375 C 185.746094 70.664062 186.699219 69.992188 187.667969 69.34375 C 188.636719 68.695312 189.621094 68.074219 190.621094 67.472656 C 191.621094 66.875 192.636719 66.296875 193.664062 65.746094 C 194.691406 65.199219 195.734375 64.671875 196.789062 64.171875 C 197.839844 63.675781 198.90625 63.203125 199.984375 62.753906 C 201.0625 62.308594 202.148438 61.886719 203.246094 61.492188 C 204.34375 61.101562 205.449219 60.734375 206.566406 60.394531 C 207.683594 60.054688 208.804688 59.742188 209.9375 59.457031 C 211.066406 59.175781 212.203125 58.917969 213.347656 58.691406 C 214.492188 58.460938 215.640625 58.261719 216.792969 58.089844 C 217.945312 57.917969 219.105469 57.773438 220.265625 57.65625 C 221.425781 57.542969 222.585938 57.453125 223.75 57.394531 C 224.917969 57.335938 226.082031 57.308594 227.246094 57.304688 C 321.453125 60.636719 321.636719 196.242188 227.488281 199.859375 C 226.320312 199.863281 225.152344 199.835938 223.984375 199.78125 C 222.816406 199.726562 221.652344 199.644531 220.488281 199.53125 C 219.328125 199.421875 218.167969 199.28125 217.011719 199.109375 C 215.855469 198.941406 214.703125 198.746094 213.554688 198.519531 C 212.410156 198.292969 211.269531 198.039062 210.132812 197.757812 C 209 197.476562 207.875 197.167969 206.753906 196.832031 C 205.636719 196.496094 204.527344 196.128906 203.425781 195.738281 C 202.324219 195.347656 201.234375 194.929688 200.152344 194.484375 C 199.070312 194.039062 198.003906 193.570312 196.945312 193.070312 C 195.886719 192.574219 194.84375 192.050781 193.8125 191.5 C 192.78125 190.953125 191.761719 190.378906 190.757812 189.78125 C 189.753906 189.179688 188.765625 188.558594 187.792969 187.910156 C 186.820312 187.261719 185.863281 186.59375 184.925781 185.898438 C 183.984375 185.203125 183.0625 184.484375 182.15625 183.746094 C 181.253906 183.007812 180.367188 182.246094 179.5 181.460938 C 178.632812 180.679688 177.785156 179.875 176.957031 179.050781 C 176.128906 178.222656 175.324219 177.378906 174.535156 176.515625 C 173.75 175.652344 172.984375 174.765625 172.242188 173.863281 C 171.5 172.964844 170.78125 172.042969 170.082031 171.105469 C 169.382812 170.167969 168.710938 169.214844 168.058594 168.242188 C 167.410156 167.273438 166.78125 166.285156 166.179688 165.285156 C 165.578125 164.285156 165 163.269531 164.449219 162.238281 C 163.894531 161.207031 163.371094 160.164062 162.867188 159.109375 C 162.367188 158.054688 161.890625 156.988281 161.445312 155.90625 C 160.996094 154.828125 160.574219 153.738281 160.179688 152.640625 C 159.78125 151.539062 159.414062 150.429688 159.074219 149.3125 C 158.734375 148.195312 158.421875 147.070312 158.136719 145.9375 C 157.851562 144.804688 157.59375 143.664062 157.363281 142.519531 C 157.132812 141.371094 156.933594 140.222656 156.761719 139.066406 C 156.585938 137.910156 156.441406 136.75 156.328125 135.585938 C 156.210938 134.425781 156.125 133.257812 156.066406 132.09375 C 156.007812 130.925781 155.976562 129.757812 155.976562 128.589844 Z M 299.386719 199.894531 C 298.4375 199.3125 297.425781 198.875 296.351562 198.585938 C 295.273438 198.296875 294.179688 198.167969 293.066406 198.195312 C 291.953125 198.222656 290.867188 198.40625 289.808594 198.746094 C 288.75 199.089844 287.757812 199.574219 286.839844 200.203125 C 284.71875 201.925781 282.523438 203.554688 280.261719 205.089844 C 277.996094 206.625 275.671875 208.058594 273.285156 209.394531 C 270.898438 210.730469 268.457031 211.957031 265.964844 213.082031 C 263.472656 214.207031 260.933594 215.222656 258.355469 216.128906 C 255.773438 217.035156 253.160156 217.828125 250.511719 218.507812 C 247.863281 219.1875 245.1875 219.75 242.492188 220.203125 C 239.792969 220.652344 237.082031 220.984375 234.355469 221.199219 C 231.628906 221.417969 228.898438 221.515625 226.164062 221.496094 C 223.429688 221.476562 220.703125 221.339844 217.980469 221.085938 C 215.253906 220.832031 212.550781 220.460938 209.859375 219.972656 C 207.167969 219.484375 204.503906 218.882812 201.863281 218.164062 C 199.222656 217.449219 196.621094 216.617188 194.054688 215.675781 C 191.484375 214.734375 188.964844 213.683594 186.488281 212.523438 C 184.011719 211.367188 181.585938 210.101562 179.21875 208.734375 C 176.851562 207.367188 174.546875 205.898438 172.304688 204.332031 C 170.0625 202.765625 167.894531 201.105469 165.792969 199.351562 C 165.003906 198.988281 164.179688 198.726562 163.324219 198.5625 C 162.46875 198.398438 161.605469 198.339844 160.738281 198.382812 C 159.867188 198.429688 159.015625 198.578125 158.179688 198.832031 C 157.347656 199.085938 156.554688 199.433594 155.808594 199.878906 C 153.617188 201.335938 151.472656 202.859375 149.375 204.445312 C 147.28125 206.035156 145.234375 207.6875 143.238281 209.402344 C 141.246094 211.117188 139.304688 212.890625 137.417969 214.726562 C 135.535156 216.5625 133.707031 218.453125 131.9375 220.398438 C 130.167969 222.347656 128.460938 224.347656 126.816406 226.398438 C 125.171875 228.453125 123.589844 230.550781 122.074219 232.703125 C 120.558594 234.851562 119.109375 237.046875 117.726562 239.285156 C 116.347656 241.523438 115.035156 243.804688 113.796875 246.125 C 112.554688 248.445312 111.386719 250.800781 110.292969 253.191406 C 109.195312 255.582031 108.175781 258.007812 107.230469 260.460938 C 106.28125 262.914062 105.414062 265.398438 104.621094 267.90625 C 103.828125 270.414062 103.113281 272.945312 102.472656 275.496094 C 101.835938 278.046875 101.277344 280.617188 100.800781 283.203125 C 100.320312 285.792969 99.921875 288.390625 99.601562 291 C 99.285156 293.613281 99.046875 296.230469 98.886719 298.855469 C 98.730469 301.484375 98.652344 304.113281 98.660156 306.742188 C 98.65625 307.460938 98.726562 308.171875 98.867188 308.878906 C 99.007812 309.585938 99.214844 310.269531 99.492188 310.933594 C 99.765625 311.597656 100.101562 312.230469 100.503906 312.828125 C 100.902344 313.425781 101.355469 313.976562 101.863281 314.488281 C 102.371094 314.996094 102.925781 315.449219 103.523438 315.847656 C 104.121094 316.25 104.753906 316.585938 105.417969 316.859375 C 106.082031 317.136719 106.765625 317.34375 107.472656 317.484375 C 108.175781 317.621094 108.890625 317.691406 109.609375 317.691406 L 345.25 317.691406 C 345.96875 317.691406 346.683594 317.621094 347.386719 317.484375 C 348.09375 317.34375 348.777344 317.136719 349.441406 316.859375 C 350.105469 316.585938 350.738281 316.25 351.335938 315.847656 C 351.933594 315.449219 352.488281 314.996094 352.996094 314.488281 C 353.503906 313.976562 353.957031 313.425781 354.355469 312.828125 C 354.757812 312.230469 355.09375 311.597656 355.367188 310.933594 C 355.644531 310.269531 355.851562 309.585938 355.992188 308.878906 C 356.132812 308.171875 356.199219 307.460938 356.199219 306.742188 C 356.199219 304.117188 356.117188 301.496094 355.953125 298.875 C 355.792969 296.253906 355.550781 293.644531 355.230469 291.039062 C 354.910156 288.433594 354.507812 285.839844 354.027344 283.257812 C 353.550781 280.679688 352.992188 278.113281 352.355469 275.566406 C 351.71875 273.019531 351.007812 270.496094 350.214844 267.992188 C 349.425781 265.488281 348.5625 263.011719 347.621094 260.5625 C 346.679688 258.113281 345.664062 255.691406 344.574219 253.304688 C 343.484375 250.917969 342.324219 248.5625 341.09375 246.246094 C 339.859375 243.929688 338.558594 241.648438 337.1875 239.410156 C 335.816406 237.171875 334.378906 234.980469 332.875 232.828125 C 331.367188 230.679688 329.796875 228.574219 328.164062 226.523438 C 326.53125 224.46875 324.835938 222.464844 323.082031 220.511719 C 321.324219 218.5625 319.511719 216.664062 317.640625 214.824219 C 315.769531 212.984375 313.84375 211.203125 311.863281 209.480469 C 309.882812 207.757812 307.851562 206.09375 305.769531 204.496094 C 303.691406 202.898438 301.5625 201.363281 299.386719 199.894531 Z M 299.386719 199.894531 " fill-opacity="1" fill-rule="nonzero"/></g><g clip-path="url(#a8fd5ead79)"><path fill="#ffffff" d="M 82.960938 228.28125 C 65.558594 228.28125 49.199219 221.503906 36.890625 209.199219 C 24.585938 196.894531 17.808594 180.535156 17.808594 163.132812 C 17.808594 145.730469 24.585938 129.367188 36.890625 117.0625 C 49.199219 104.757812 65.558594 97.980469 82.960938 97.980469 C 100.363281 97.980469 116.722656 104.757812 129.027344 117.0625 C 141.332031 129.367188 148.109375 145.730469 148.109375 163.132812 C 148.109375 180.535156 141.332031 196.894531 129.027344 209.199219 C 116.722656 221.507812 100.363281 228.28125 82.960938 228.28125 Z M 82.960938 107.925781 C 52.519531 107.925781 27.753906 132.691406 27.753906 163.132812 C 27.753906 193.574219 52.519531 218.339844 82.960938 218.339844 C 113.402344 218.339844 138.167969 193.570312 138.167969 163.132812 C 138.167969 132.6875 113.402344 107.925781 82.960938 107.925781 Z M 82.960938 107.925781 " fill-opacity="1" fill-rule="nonzero"/></g><path fill="#ffffff" d="M 104.585938 188.289062 C 103.617188 188.289062 102.636719 188.003906 101.777344 187.414062 L 77.558594 170.808594 C 76.203125 169.878906 75.394531 168.339844 75.398438 166.699219 L 75.460938 126.054688 C 75.464844 123.3125 77.691406 121.09375 80.433594 121.09375 C 80.433594 121.09375 80.4375 121.09375 80.4375 121.09375 C 83.183594 121.097656 85.40625 123.328125 85.402344 126.070312 L 85.34375 164.089844 L 107.398438 179.214844 C 109.664062 180.769531 110.242188 183.863281 108.6875 186.128906 C 107.726562 187.53125 106.167969 188.289062 104.585938 188.289062 Z M 104.585938 188.289062 " fill-opacity="1" fill-rule="nonzero"/></svg>